<svg xmlns="http://www.w3.org/2000/svg" width="800" height="800" viewBox="0 0 800 800" xmlns:c2pa="http://c2pa.org/manifest"><metadata><c2pa:manifest>AAAWgmp1bWIAAAAeanVtZGMycGEAEQAQgAAAqgA4m3EDYzJwYQAAABZcanVtYgAAAEdqdW1kYzJtYQARABCAAACqADibcQN1cm46YzJwYTozZTJiMWM3Mi0wMTE3LTRiMDYtYTMyMS02NDVjMGM0NjVhMzQAAAADl2p1bWIAAAApanVtZGMyYXMAEQAQgAAAqgA4m3EDYzJwYS5hc3NlcnRpb25zAAAAALxqdW1iAAAARGp1bWRjYm9yABEAEIAAAKoAOJtxE2MycGEuaW5ncmVkaWVudC52MwAAAAAYYzJzaAIRnqIa4QLv/ojJ8E/b80IAAABwY2JvcqNpZGM6Zm9ybWF0bWltYWdlL3N2Zyt4bWxqaW5zdGFuY2VJRHgseG1wOmlpZDo5ZmU2OTk1Yy1iMmRlLTQ0ZmMtYTcxMy0zYTU2MzVhMGI1OWJscmVsYXRpb25zaGlwaHBhcmVudE9mAAAB4mp1bWIAAABBanVtZGNib3IAEQAQgAAAqgA4m3ETYzJwYS5hY3Rpb25zLnYyAAAAABhjMnNobAd0vMYlrMqPa6lBqTSgMQAAAZljYm9yomdhY3Rpb25zgqJmYWN0aW9ua2MycGEub3BlbmVkanBhcmFtZXRlcnOha2luZ3JlZGllbnRzgaJjdXJseC1zZWxmI2p1bWJmPWMycGEuYXNzZXJ0aW9ucy9jMnBhLmluZ3JlZGllbnQudjNkaGFzaFggsoQiXhQFwxtM49Grg/x34IljVoXVi4i28Sy83crrtgakZmFjdGlvbngdY29tLmFudGhyb3BpYy5jbGF1ZGUucHJvdmlkZWRqcGFyYW1ldGVyc6F4H2NvbS5hbnRocm9waWMub3JpZ2luLWNvbmZpZGVuY2VndW5rbm93bmtkZXNjcmlwdGlvbnhmQ2xhdWRlIHByb3ZpZGVkIHRoaXMgZmlsZSBhdCB0aGUgcmVxdWVzdCBvZiBhIHVzZXIgYW5kIG1heSBoYXZlIGNyZWF0ZWQgb3IgbW9kaWZpZWQgdGhlIGZpbGUgY29udGVudHMubXNvZnR3YXJlQWdlbnShZG5hbWVmQ2xhdWRlcmFsbEFjdGlvbnNJbmNsdWRlZPUAAADIanVtYgAAAEBqdW1kY2JvcgARABCAAACqADibcRNjMnBhLmhhc2guZGF0YQAAAAAYYzJzaJhStrnMqJalTyImyJEflgQAAACAY2JvcqVjYWxnZnNoYTI1NmNwYWRNAAAAAAAAAAAAAAAAAGRoYXNoWCALE/QEmeT8i09r0qeewinS9E7nB+88gvC6sH4EX2+TyWRuYW1lbmp1bWJmIG1hbmlmZXN0amV4Y2x1c2lvbnOBomVzdGFydBiWZmxlbmd0aBkeBAAAAj5qdW1iAAAAJ2p1bWRjMmNsABEAEIAAAKoAOJtxA2MycGEuY2xhaW0udjIAAAACD2Nib3KlY2FsZ2ZzaGEyNTZpc2lnbmF0dXJleE1zZWxmI2p1bWJmPS9jMnBhL3VybjpjMnBhOjNlMmIxYzcyLTAxMTctNGIwNi1hMzIxLTY0NWMwYzQ2NWEzNC9jMnBhLnNpZ25hdHVyZWppbnN0YW5jZUlEeCx4bXA6aWlkOjA3OTEwODZlLTc4YWQtNDFlZS05YmI4LTIxYzlhMmI3Y2YyNnJjcmVhdGVkX2Fzc2VydGlvbnODomN1cmx4LXNlbGYjanVtYmY9YzJwYS5hc3NlcnRpb25zL2MycGEuaW5ncmVkaWVudC52M2RoYXNoWCCyhCJeFAXDG0zj0auD/HfgiWNWhdWLiLbxLLzdyuu2BqJjdXJseCpzZWxmI2p1bWJmPWMycGEuYXNzZXJ0aW9ucy9jMnBhLmFjdGlvbnMudjJkaGFzaFgg/8OKcXdtTJyo3bI+bz/xwJHkZhuLoTNcV7epv64yUwKiY3VybHgpc2VsZiNqdW1iZj1jMnBhLmFzc2VydGlvbnMvYzJwYS5oYXNoLmRhdGFkaGFzaFgg32cWJomcLBF2puOrOGsoVF73TRL6ddxlAJR2dt6hko50Y2xhaW1fZ2VuZXJhdG9yX2luZm+jZG5hbWVvQW50aHJvcGljIEZpbGVzZ3ZlcnNpb25lMS4wLjBrc3BlY1ZlcnNpb25lMi40LjAAABA4anVtYgAAAChqdW1kYzJjcwARABCAAACqADibcQNjMnBhLnNpZ25hdHVyZQAAABAIY2JvctKEWQISogEmGCFZAgowggIGMIIBjaADAgECAhRA5aAK7sI50L64g/oGQgU9Z1UTADAKBggqhkjOPQQDAzBJMRcwFQYDVQQKEw5BbnRocm9waWMsIFBCQzEuMCwGA1UEAxMlQW50aHJvcGljIENvbnRlbnQgQ3JlZGVudGlhbHMgUm9vdCBDQTAeFw0yNjA4MDcxODQzNTZaFw0yODA4MDYxOTQzNTZaMEQxFzAVBgNVBAoTDkFudGhyb3BpYywgUEJDMSkwJwYDVQQDEyBBbnRocm9waWMgQ2xhdWRlIENvbnRlbnQgU2lnbmluZzBZMBMGByqGSM49AgEGCCqGSM49AwEHA0IABJh6CmvLUBgFFNU0vUKlOVtE6djd17L5SuwX0LemFisBM3dkd/3cyjxFA3Qo5S46fX0/ihY0VZ7mfb9KF703t5OjWDBWMA4GA1UdDwEB/wQEAwIHgDAVBgNVHSUEDjAMBgorBgEEAYPoXgIBMAwGA1UdEwEB/wQCMAAwHwYDVR0jBBgwFoAUzlHiBIFOZFsj+OPEz5o+nMHXXMIwCgYIKoZIzj0EAwMDZwAwZAIwMXMdFJ4BetLLVY7ORuE9noqbbAZOZn/aArXyTwFAZfKrPzxF2vPoJNf1+UCdg1XGAjBwX1zd9WGqYkqmL5SFqw1QySjr1zJfpJM9+1rdDwSPLMOPOjKuiXjoU/pUUeG9RwmhY3BhZFkNngAAAAAAAAAAAAAAAAAAAAAAAAAAAAAAAAAAAAAAAAAAAAAAAAAAAAAAAAAAAAAAAAAAAAAAAAAAAAAAAAAAAAAAAAAAAAAAAAAAAAAAAAAAAAAAAAAAAAAAAAAAAAAAAAAAAAAAAAAAAAAAAAAAAAAAAAAAAAAAAAAAAAAAAAAAAAAAAAAAAAAAAAAAAAAAAAAAAAAAAAAAAAAAAAAAAAAAAAAAAAAAAAAAAAAAAAAAAAAAAAAAAAAAAAAAAAAAAAAAAAAAAAAAAAAAAAAAAAAAAAAAAAAAAAAAAAAAAAAAAAAAAAAAAAAAAAAAAAAAAAAAAAAAAAAAAAAAAAAAAAAAAAAAAAAAAAAAAAAAAAAAAAAAAAAAAAAAAAAAAAAAAAAAAAAAAAAAAAAAAAAAAAAAAAAAAAAAAAAAAAAAAAAAAAAAAAAAAAAAAAAAAAAAAAAAAAAAAAAAAAAAAAAAAAAAAAAAAAAAAAAAAAAAAAAAAAAAAAAAAAAAAAAAAAAAAAAAAAAAAAAAAAAAAAAAAAAAAAAAAAAAAAAAAAAAAAAAAAAAAAAAAAAAAAAAAAAAAAAAAAAAAAAAAAAAAAAAAAAAAAAAAAAAAAAAAAAAAAAAAAAAAAAAAAAAAAAAAAAAAAAAAAAAAAAAAAAAAAAAAAAAAAAAAAAAAAAAAAAAAAAAAAAAAAAAAAAAAAAAAAAAAAAAAAAAAAAAAAAAAAAAAAAAAAAAAAAAAAAAAAAAAAAAAAAAAAAAAAAAAAAAAAAAAAAAAAAAAAAAAAAAAAAAAAAAAAAAAAAAAAAAAAAAAAAAAAAAAAAAAAAAAAAAAAAAAAAAAAAAAAAAAAAAAAAAAAAAAAAAAAAAAAAAAAAAAAAAAAAAAAAAAAAAAAAAAAAAAAAAAAAAAAAAAAAAAAAAAAAAAAAAAAAAAAAAAAAAAAAAAAAAAAAAAAAAAAAAAAAAAAAAAAAAAAAAAAAAAAAAAAAAAAAAAAAAAAAAAAAAAAAAAAAAAAAAAAAAAAAAAAAAAAAAAAAAAAAAAAAAAAAAAAAAAAAAAAAAAAAAAAAAAAAAAAAAAAAAAAAAAAAAAAAAAAAAAAAAAAAAAAAAAAAAAAAAAAAAAAAAAAAAAAAAAAAAAAAAAAAAAAAAAAAAAAAAAAAAAAAAAAAAAAAAAAAAAAAAAAAAAAAAAAAAAAAAAAAAAAAAAAAAAAAAAAAAAAAAAAAAAAAAAAAAAAAAAAAAAAAAAAAAAAAAAAAAAAAAAAAAAAAAAAAAAAAAAAAAAAAAAAAAAAAAAAAAAAAAAAAAAAAAAAAAAAAAAAAAAAAAAAAAAAAAAAAAAAAAAAAAAAAAAAAAAAAAAAAAAAAAAAAAAAAAAAAAAAAAAAAAAAAAAAAAAAAAAAAAAAAAAAAAAAAAAAAAAAAAAAAAAAAAAAAAAAAAAAAAAAAAAAAAAAAAAAAAAAAAAAAAAAAAAAAAAAAAAAAAAAAAAAAAAAAAAAAAAAAAAAAAAAAAAAAAAAAAAAAAAAAAAAAAAAAAAAAAAAAAAAAAAAAAAAAAAAAAAAAAAAAAAAAAAAAAAAAAAAAAAAAAAAAAAAAAAAAAAAAAAAAAAAAAAAAAAAAAAAAAAAAAAAAAAAAAAAAAAAAAAAAAAAAAAAAAAAAAAAAAAAAAAAAAAAAAAAAAAAAAAAAAAAAAAAAAAAAAAAAAAAAAAAAAAAAAAAAAAAAAAAAAAAAAAAAAAAAAAAAAAAAAAAAAAAAAAAAAAAAAAAAAAAAAAAAAAAAAAAAAAAAAAAAAAAAAAAAAAAAAAAAAAAAAAAAAAAAAAAAAAAAAAAAAAAAAAAAAAAAAAAAAAAAAAAAAAAAAAAAAAAAAAAAAAAAAAAAAAAAAAAAAAAAAAAAAAAAAAAAAAAAAAAAAAAAAAAAAAAAAAAAAAAAAAAAAAAAAAAAAAAAAAAAAAAAAAAAAAAAAAAAAAAAAAAAAAAAAAAAAAAAAAAAAAAAAAAAAAAAAAAAAAAAAAAAAAAAAAAAAAAAAAAAAAAAAAAAAAAAAAAAAAAAAAAAAAAAAAAAAAAAAAAAAAAAAAAAAAAAAAAAAAAAAAAAAAAAAAAAAAAAAAAAAAAAAAAAAAAAAAAAAAAAAAAAAAAAAAAAAAAAAAAAAAAAAAAAAAAAAAAAAAAAAAAAAAAAAAAAAAAAAAAAAAAAAAAAAAAAAAAAAAAAAAAAAAAAAAAAAAAAAAAAAAAAAAAAAAAAAAAAAAAAAAAAAAAAAAAAAAAAAAAAAAAAAAAAAAAAAAAAAAAAAAAAAAAAAAAAAAAAAAAAAAAAAAAAAAAAAAAAAAAAAAAAAAAAAAAAAAAAAAAAAAAAAAAAAAAAAAAAAAAAAAAAAAAAAAAAAAAAAAAAAAAAAAAAAAAAAAAAAAAAAAAAAAAAAAAAAAAAAAAAAAAAAAAAAAAAAAAAAAAAAAAAAAAAAAAAAAAAAAAAAAAAAAAAAAAAAAAAAAAAAAAAAAAAAAAAAAAAAAAAAAAAAAAAAAAAAAAAAAAAAAAAAAAAAAAAAAAAAAAAAAAAAAAAAAAAAAAAAAAAAAAAAAAAAAAAAAAAAAAAAAAAAAAAAAAAAAAAAAAAAAAAAAAAAAAAAAAAAAAAAAAAAAAAAAAAAAAAAAAAAAAAAAAAAAAAAAAAAAAAAAAAAAAAAAAAAAAAAAAAAAAAAAAAAAAAAAAAAAAAAAAAAAAAAAAAAAAAAAAAAAAAAAAAAAAAAAAAAAAAAAAAAAAAAAAAAAAAAAAAAAAAAAAAAAAAAAAAAAAAAAAAAAAAAAAAAAAAAAAAAAAAAAAAAAAAAAAAAAAAAAAAAAAAAAAAAAAAAAAAAAAAAAAAAAAAAAAAAAAAAAAAAAAAAAAAAAAAAAAAAAAAAAAAAAAAAAAAAAAAAAAAAAAAAAAAAAAAAAAAAAAAAAAAAAAAAAAAAAAAAAAAAAAAAAAAAAAAAAAAAAAAAAAAAAAAAAAAAAAAAAAAAAAAAAAAAAAAAAAAAAAAAAAAAAAAAAAAAAAAAAAAAAAAAAAAAAAAAAAAAAAAAAAAAAAAAAAAAAAAAAAAAAAAAAAAAAAAAAAAAAAAAAAAAAAAAAAAAAAAAAAAAAAAAAAAAAAAAAAAAAAAAAAAAAAAAAAAAAAAAAAAAAAAAAAAAAAAAAAAAAAAAAAAAAAAAAAAAAAAAAAAAAAAAAAAAAAAAAAAAAAAAAAAAAAAAAAAAAAAAAAAAAAAAAAAAAAAAAAAAAAAAAAAAAAAAAAAAAAAAAAAAAAAAAAAAAAAAAAAAAAAAAAAAAAAAAAAAAAAAAAAAAAAAAAAAAAAAAAAAAAAAAAAAAAAAAAAAAAAAAAAAAAAAAAAAAAAAAAAAAAAAAAAAAAAAAAAAAAAAAAAAAAAAAAAAAAAAAAAAAAAAAAAAAAAAAAAAAAAAAAAAAAAAAAAAAAAAAAAAAAAAAAAAAAAAAAAAAAAAAAAAAAAAAAAAAAAAAAAAAAAAAAAAAAAAAAAAAAAAAAAAAAAAAAAAAAAAAAAAAAAAAAAAAAAAAAAAAAAAAAAAAAAAAAAAAAAAAAAAAAAAAAAAAAAAAAAAAAAAAAAAAAAAAAAAAAAAAAAAAAAAAAAAAAAAAAAAAAAAAAAAAAAAAAAAAAAAAAAAAAAAAAAAAAAAAAAAAAAAAAAAAAAAAAAAAAAAAAAAAAAAAAAAAAAAAAAAAAAAAAAAAAAAAAAAAAAAAAAAAAAAAAAAAAAAAAAAAAAAAAAAAAAAAAAAAAAAAAAAAAAAAAAAAAAAAAAAAAAAAAAAAAAAAAAAAAAAAAAAAAAAAAAAAAAAAAAAAAAAAAAAAAAAAAAAAAAAAAAAAAAAAAAAAAAAAAAAAAAAAAAAAAAAAAAAAAAAAAAAAAAAAAAAAAAAAAAAAAAAAAAAAAAAAAAAAAAAAAAAAAAAAAAAAAAAAAAAAAAAAAAAAAAAAAAAAAAAAAAAAAAAAAAAAAAAAAAAAAAAAAAAAAAAAAAAAAAAAAAAAAAAAAAAAAAAAAAAAAAAAAAAAAAAAAAAAAAAAAAAAAAAAAAAAAAAAAAAAAAAAAAAAAAAAAAAAAAAAAAAAAAAAAAAAAAAAAAAAAAAAAAAAAAAAAAAAAAAAAAAAAAAAAAAAAAAAAAAAAAAAAAAAAAAAAAAAAAAAAAAAAAAAAAAAAAAAAAAAAAAAAAAAAAAAAAAAAAAAAAAAAAAAAAAAAAAAAAAAAAAAAAAAAAAAAAAAAAAAAAAAAAAAAAAAAAAAAAAAAAAAAAAAAAAAAAAAAAAAAAAAAAAAAAAAAAAAAAAAAAAAAAAAAAAAAAAAAAAAAAAAAAAAAAAAAAAAAAAAAAAAAAAAAAAAAAAAAAAAAAAAAAAAAAAAAAAAAAAAAAAAAAAAAAAAAAAAAAAAAAAAAAAAAAAAAAAAAAAAAAAAAAAAAAAAAAAAAAAAAAAAAAAAAAAAAAAAAAAAAAAAAAAAAAAAAAAAAAAAAAAAAAAAAAAAAAAAAAAAAAAAAAAAAAAAAAAAAAAAAAAAAAAAAAAAAAAAAAAAAAAAAAAAAAAAAAAAAAAAAAAAAAAAAAAAAAAAAAAAAAAAAAAAAAAAAAAAAAAAAAAAAAAAAAAAAAAAAAAAAAAAAAAAAAAAAAAAAAAAAAAAAAAAPZYQNK4PSsaXtVckY+CTGhAvupjUTVYvctXD/yxaPG7jWuuaW9PYV0QW/JXJbq+0Wd2+hZhOePkCobs/xCzUHS3Ym8=</c2pa:manifest></metadata>
<defs>
  <filter id="rough" x="-10%" y="-10%" width="120%" height="120%">
    <feTurbulence type="fractalNoise" baseFrequency="0.018" numOctaves="3" seed="4" result="n"/>
    <feDisplacementMap in="SourceGraphic" in2="n" scale="16"/>
  </filter>
  <filter id="roughS" x="-20%" y="-20%" width="140%" height="140%">
    <feTurbulence type="fractalNoise" baseFrequency="0.06" numOctaves="2" seed="9" result="n"/>
    <feDisplacementMap in="SourceGraphic" in2="n" scale="5"/>
  </filter>
  <filter id="shadow" x="-20%" y="-20%" width="140%" height="150%">
    <feDropShadow dx="0" dy="4" stdDeviation="4" flood-color="#000" flood-opacity="0.5"/>
  </filter>
  <filter id="softShadow" x="-20%" y="-20%" width="140%" height="150%">
    <feDropShadow dx="0" dy="3" stdDeviation="2.4" flood-color="#2a0d05" flood-opacity="0.45"/>
  </filter>
  <filter id="grain" x="0" y="0" width="100%" height="100%">
    <feTurbulence type="fractalNoise" baseFrequency="0.9" numOctaves="2" seed="2" result="t"/>
    <feColorMatrix in="t" type="matrix" values="0 0 0 0 0.25  0 0 0 0 0.12  0 0 0 0 0.04  0 0 0 0.55 -0.12"/>
    <feComposite in2="SourceGraphic" operator="in"/>
  </filter>
  <radialGradient id="gDough" cx="50%" cy="46%" r="55%">
    <stop offset="0" stop-color="#ebbd78"/><stop offset=".78" stop-color="#d79a50"/><stop offset="1" stop-color="#b9732e"/>
  </radialGradient>
  <radialGradient id="gCrust" cx="50%" cy="50%" r="50%">
    <stop offset=".80" stop-color="#e2a85b"/><stop offset=".93" stop-color="#cf8a3c"/><stop offset="1" stop-color="#a9621f"/>
  </radialGradient>
  <radialGradient id="gTomato" cx="50%" cy="48%" r="55%">
    <stop offset="0" stop-color="#c8402f"/><stop offset="1" stop-color="#9c2a1f"/>
  </radialGradient>
  <radialGradient id="gWhite" cx="50%" cy="48%" r="55%">
    <stop offset="0" stop-color="#f2e7cc"/><stop offset="1" stop-color="#dfcda5"/>
  </radialGradient>
  <radialGradient id="gSpicy" cx="50%" cy="48%" r="55%">
    <stop offset="0" stop-color="#cf4a14"/><stop offset="1" stop-color="#8d2509"/>
  </radialGradient>
  <radialGradient id="gMozz" cx="40%" cy="35%" r="70%">
    <stop offset="0" stop-color="#fff6e0"/><stop offset="1" stop-color="#f0dfb8"/>
  </radialGradient>
  <radialGradient id="gPep" cx="42%" cy="38%" r="70%">
    <stop offset="0" stop-color="#cf3b2c"/><stop offset=".7" stop-color="#a62a1f"/><stop offset="1" stop-color="#7d1d15"/>
  </radialGradient>
  <linearGradient id="gBasil" x1="0" y1="0" x2="1" y2="1">
    <stop offset="0" stop-color="#4e9a43"/><stop offset="1" stop-color="#2b6a2d"/>
  </linearGradient>
  <radialGradient id="gPlate" cx="50%" cy="45%" r="55%">
    <stop offset="0" stop-color="#2b2520"/><stop offset=".85" stop-color="#1c1814"/><stop offset="1" stop-color="#312a23"/>
  </radialGradient>
  <radialGradient id="gSlate" cx="50%" cy="42%" r="75%">
    <stop offset="0" stop-color="#2a221c"/><stop offset="1" stop-color="#0f0c0a"/>
  </radialGradient>
</defs>
<g filter="url(#softShadow)"><g filter="url(#roughS)"><ellipse cx="490.9" cy="407.0" rx="35.4" ry="33.7" transform="rotate(25 490.9 407.0)" fill="url(#gMozz)" opacity=".97"/><ellipse cx="482.1" cy="396.9" rx="15.9" ry="10.1" transform="rotate(25 490.9 407.0)" fill="#fff" opacity=".35"/><circle cx="483.3" cy="414.0" r="4.7" fill="#c98a3b" opacity=".55"/><ellipse cx="387.0" cy="179.0" rx="29.3" ry="30.7" transform="rotate(81 387.0 179.0)" fill="url(#gMozz)" opacity=".97"/><ellipse cx="379.7" cy="169.8" rx="13.2" ry="9.2" transform="rotate(81 387.0 179.0)" fill="#fff" opacity=".35"/><ellipse cx="483.0" cy="398.1" rx="26.5" ry="38.8" transform="rotate(73 483.0 398.1)" fill="url(#gMozz)" opacity=".97"/><ellipse cx="476.4" cy="386.5" rx="11.9" ry="11.6" transform="rotate(73 483.0 398.1)" fill="#fff" opacity=".35"/><circle cx="479.4" cy="393.9" r="8.8" fill="#c98a3b" opacity=".55"/><ellipse cx="431.2" cy="522.8" rx="40.0" ry="30.9" transform="rotate(172 431.2 522.8)" fill="url(#gMozz)" opacity=".97"/><ellipse cx="421.2" cy="513.5" rx="18.0" ry="9.3" transform="rotate(172 431.2 522.8)" fill="#fff" opacity=".35"/><ellipse cx="324.4" cy="496.8" rx="46.1" ry="39.8" transform="rotate(5 324.4 496.8)" fill="url(#gMozz)" opacity=".97"/><ellipse cx="312.9" cy="484.9" rx="20.7" ry="11.9" transform="rotate(5 324.4 496.8)" fill="#fff" opacity=".35"/><ellipse cx="548.6" cy="238.5" rx="31.2" ry="35.9" transform="rotate(131 548.6 238.5)" fill="url(#gMozz)" opacity=".97"/><ellipse cx="540.8" cy="227.7" rx="14.1" ry="10.8" transform="rotate(131 548.6 238.5)" fill="#fff" opacity=".35"/><circle cx="552.1" cy="230.4" r="4.2" fill="#c98a3b" opacity=".55"/><ellipse cx="319.1" cy="534.9" rx="35.5" ry="32.9" transform="rotate(151 319.1 534.9)" fill="url(#gMozz)" opacity=".97"/><ellipse cx="310.2" cy="525.0" rx="16.0" ry="9.9" transform="rotate(151 319.1 534.9)" fill="#fff" opacity=".35"/><ellipse cx="668.1" cy="360.0" rx="45.0" ry="26.1" transform="rotate(32 668.1 360.0)" fill="url(#gMozz)" opacity=".97"/><ellipse cx="656.9" cy="352.2" rx="20.2" ry="7.8" transform="rotate(32 668.1 360.0)" fill="#fff" opacity=".35"/><ellipse cx="185.8" cy="336.6" rx="28.2" ry="23.9" transform="rotate(166 185.8 336.6)" fill="url(#gMozz)" opacity=".97"/><ellipse cx="178.7" cy="329.4" rx="12.7" ry="7.2" transform="rotate(166 185.8 336.6)" fill="#fff" opacity=".35"/><ellipse cx="371.7" cy="320.8" rx="35.6" ry="38.2" transform="rotate(117 371.7 320.8)" fill="url(#gMozz)" opacity=".97"/><ellipse cx="362.8" cy="309.3" rx="16.0" ry="11.5" transform="rotate(117 371.7 320.8)" fill="#fff" opacity=".35"/><ellipse cx="460.1" cy="573.3" rx="45.2" ry="28.9" transform="rotate(142 460.1 573.3)" fill="url(#gMozz)" opacity=".97"/><ellipse cx="448.8" cy="564.6" rx="20.3" ry="8.7" transform="rotate(142 460.1 573.3)" fill="#fff" opacity=".35"/><ellipse cx="463.1" cy="457.8" rx="49.6" ry="22.4" transform="rotate(35 463.1 457.8)" fill="url(#gMozz)" opacity=".97"/><ellipse cx="450.7" cy="451.1" rx="22.3" ry="6.7" transform="rotate(35 463.1 457.8)" fill="#fff" opacity=".35"/><circle cx="471.5" cy="464.1" r="6.4" fill="#c98a3b" opacity=".55"/><ellipse cx="158.5" cy="402.8" rx="32.7" ry="27.4" transform="rotate(110 158.5 402.8)" fill="url(#gMozz)" opacity=".97"/><ellipse cx="150.3" cy="394.6" rx="14.7" ry="8.2" transform="rotate(110 158.5 402.8)" fill="#fff" opacity=".35"/><ellipse cx="488.4" cy="421.6" rx="29.3" ry="34.5" transform="rotate(125 488.4 421.6)" fill="url(#gMozz)" opacity=".97"/><ellipse cx="481.1" cy="411.2" rx="13.2" ry="10.4" transform="rotate(125 488.4 421.6)" fill="#fff" opacity=".35"/><ellipse cx="415.1" cy="263.5" rx="44.4" ry="39.7" transform="rotate(63 415.1 263.5)" fill="url(#gMozz)" opacity=".97"/><ellipse cx="404.0" cy="251.6" rx="20.0" ry="11.9" transform="rotate(63 415.1 263.5)" fill="#fff" opacity=".35"/><circle cx="410.7" cy="256.6" r="4.9" fill="#c98a3b" opacity=".55"/><ellipse cx="492.3" cy="426.9" rx="46.8" ry="21.0" transform="rotate(111 492.3 426.9)" fill="url(#gMozz)" opacity=".97"/><ellipse cx="480.6" cy="420.6" rx="21.0" ry="6.3" transform="rotate(111 492.3 426.9)" fill="#fff" opacity=".35"/><circle cx="480.8" cy="432.3" r="5.5" fill="#c98a3b" opacity=".55"/><ellipse cx="474.1" cy="567.8" rx="42.7" ry="30.5" transform="rotate(155 474.1 567.8)" fill="url(#gMozz)" opacity=".97"/><ellipse cx="463.4" cy="558.7" rx="19.2" ry="9.1" transform="rotate(155 474.1 567.8)" fill="#fff" opacity=".35"/><ellipse cx="172.3" cy="365.3" rx="37.1" ry="34.3" transform="rotate(84 172.3 365.3)" fill="url(#gMozz)" opacity=".97"/><ellipse cx="163.0" cy="355.0" rx="16.7" ry="10.3" transform="rotate(84 172.3 365.3)" fill="#fff" opacity=".35"/><circle cx="161.1" cy="373.1" r="7.7" fill="#c98a3b" opacity=".55"/><ellipse cx="611.5" cy="320.5" rx="39.9" ry="23.3" transform="rotate(154 611.5 320.5)" fill="url(#gMozz)" opacity=".97"/><ellipse cx="601.5" cy="313.5" rx="18.0" ry="7.0" transform="rotate(154 611.5 320.5)" fill="#fff" opacity=".35"/><circle cx="609.1" cy="313.8" r="5.9" fill="#c98a3b" opacity=".55"/><ellipse cx="337.6" cy="566.1" rx="43.1" ry="30.8" transform="rotate(44 337.6 566.1)" fill="url(#gMozz)" opacity=".97"/><ellipse cx="326.8" cy="556.8" rx="19.4" ry="9.2" transform="rotate(44 337.6 566.1)" fill="#fff" opacity=".35"/><ellipse cx="376.9" cy="153.7" rx="26.8" ry="32.3" transform="rotate(161 376.9 153.7)" fill="url(#gMozz)" opacity=".97"/><ellipse cx="370.2" cy="144.0" rx="12.1" ry="9.7" transform="rotate(161 376.9 153.7)" fill="#fff" opacity=".35"/><circle cx="370.5" cy="161.8" r="5.8" fill="#c98a3b" opacity=".55"/><ellipse cx="199.9" cy="543.0" rx="35.2" ry="24.0" transform="rotate(39 199.9 543.0)" fill="url(#gMozz)" opacity=".97"/><ellipse cx="191.1" cy="535.8" rx="15.8" ry="7.2" transform="rotate(39 199.9 543.0)" fill="#fff" opacity=".35"/><circle cx="205.4" cy="540.4" r="7.9" fill="#c98a3b" opacity=".55"/><ellipse cx="524.2" cy="454.7" rx="41.0" ry="29.6" transform="rotate(90 524.2 454.7)" fill="url(#gMozz)" opacity=".97"/><ellipse cx="514.0" cy="445.8" rx="18.4" ry="8.9" transform="rotate(90 524.2 454.7)" fill="#fff" opacity=".35"/><ellipse cx="380.2" cy="514.2" rx="26.8" ry="29.6" transform="rotate(53 380.2 514.2)" fill="url(#gMozz)" opacity=".97"/><ellipse cx="373.5" cy="505.3" rx="12.1" ry="8.9" transform="rotate(53 380.2 514.2)" fill="#fff" opacity=".35"/><ellipse cx="403.8" cy="400.1" rx="35.1" ry="35.2" transform="rotate(54 403.8 400.1)" fill="url(#gMozz)" opacity=".97"/><ellipse cx="395.1" cy="389.6" rx="15.8" ry="10.5" transform="rotate(54 403.8 400.1)" fill="#fff" opacity=".35"/><ellipse cx="248.3" cy="317.3" rx="44.7" ry="24.7" transform="rotate(109 248.3 317.3)" fill="url(#gMozz)" opacity=".97"/><ellipse cx="237.1" cy="309.9" rx="20.1" ry="7.4" transform="rotate(109 248.3 317.3)" fill="#fff" opacity=".35"/><ellipse cx="251.3" cy="360.9" rx="28.3" ry="31.5" transform="rotate(34 251.3 360.9)" fill="url(#gMozz)" opacity=".97"/><ellipse cx="244.2" cy="351.4" rx="12.7" ry="9.4" transform="rotate(34 251.3 360.9)" fill="#fff" opacity=".35"/><ellipse cx="145.5" cy="330.5" rx="42.2" ry="30.4" transform="rotate(155 145.5 330.5)" fill="url(#gMozz)" opacity=".97"/><ellipse cx="134.9" cy="321.3" rx="19.0" ry="9.1" transform="rotate(155 145.5 330.5)" fill="#fff" opacity=".35"/><circle cx="141.7" cy="334.8" r="6.8" fill="#c98a3b" opacity=".55"/><ellipse cx="430.9" cy="571.6" rx="45.8" ry="24.8" transform="rotate(127 430.9 571.6)" fill="url(#gMozz)" opacity=".97"/><ellipse cx="419.5" cy="564.1" rx="20.6" ry="7.5" transform="rotate(127 430.9 571.6)" fill="#fff" opacity=".35"/><circle cx="447.6" cy="575.2" r="5.6" fill="#c98a3b" opacity=".55"/><ellipse cx="641.4" cy="374.4" rx="27.5" ry="25.0" transform="rotate(89 641.4 374.4)" fill="url(#gMozz)" opacity=".97"/><ellipse cx="634.5" cy="366.9" rx="12.4" ry="7.5" transform="rotate(89 641.4 374.4)" fill="#fff" opacity=".35"/><ellipse cx="437.7" cy="445.9" rx="33.5" ry="20.9" transform="rotate(74 437.7 445.9)" fill="url(#gMozz)" opacity=".97"/><ellipse cx="429.3" cy="439.6" rx="15.1" ry="6.3" transform="rotate(74 437.7 445.9)" fill="#fff" opacity=".35"/><ellipse cx="304.8" cy="437.4" rx="26.6" ry="36.1" transform="rotate(79 304.8 437.4)" fill="url(#gMozz)" opacity=".97"/><ellipse cx="298.2" cy="426.6" rx="12.0" ry="10.8" transform="rotate(79 304.8 437.4)" fill="#fff" opacity=".35"/><ellipse cx="176.9" cy="431.0" rx="47.6" ry="36.5" transform="rotate(131 176.9 431.0)" fill="url(#gMozz)" opacity=".97"/><ellipse cx="165.0" cy="420.0" rx="21.4" ry="11.0" transform="rotate(131 176.9 431.0)" fill="#fff" opacity=".35"/><circle cx="164.3" cy="419.0" r="8.3" fill="#c98a3b" opacity=".55"/><ellipse cx="592.2" cy="471.8" rx="47.8" ry="26.4" transform="rotate(70 592.2 471.8)" fill="url(#gMozz)" opacity=".97"/><ellipse cx="580.3" cy="463.9" rx="21.5" ry="7.9" transform="rotate(70 592.2 471.8)" fill="#fff" opacity=".35"/><ellipse cx="611.4" cy="323.1" rx="46.1" ry="20.8" transform="rotate(131 611.4 323.1)" fill="url(#gMozz)" opacity=".97"/><ellipse cx="599.9" cy="316.8" rx="20.8" ry="6.2" transform="rotate(131 611.4 323.1)" fill="#fff" opacity=".35"/><ellipse cx="199.8" cy="542.6" rx="43.6" ry="38.2" transform="rotate(133 199.8 542.6)" fill="url(#gMozz)" opacity=".97"/><ellipse cx="188.9" cy="531.2" rx="19.6" ry="11.5" transform="rotate(133 199.8 542.6)" fill="#fff" opacity=".35"/><ellipse cx="217.5" cy="488.5" rx="44.8" ry="29.1" transform="rotate(25 217.5 488.5)" fill="url(#gMozz)" opacity=".97"/><ellipse cx="206.3" cy="479.8" rx="20.2" ry="8.7" transform="rotate(25 217.5 488.5)" fill="#fff" opacity=".35"/><ellipse cx="575.1" cy="216.3" rx="29.0" ry="27.6" transform="rotate(41 575.1 216.3)" fill="url(#gMozz)" opacity=".97"/><ellipse cx="567.9" cy="208.0" rx="13.1" ry="8.3" transform="rotate(41 575.1 216.3)" fill="#fff" opacity=".35"/><circle cx="585.8" cy="214.6" r="5.6" fill="#c98a3b" opacity=".55"/><ellipse cx="374.5" cy="578.7" rx="42.1" ry="26.9" transform="rotate(34 374.5 578.7)" fill="url(#gMozz)" opacity=".97"/><ellipse cx="364.0" cy="570.6" rx="18.9" ry="8.1" transform="rotate(34 374.5 578.7)" fill="#fff" opacity=".35"/><circle cx="366.4" cy="587.4" r="4.8" fill="#c98a3b" opacity=".55"/><ellipse cx="402.3" cy="310.6" rx="44.9" ry="25.3" transform="rotate(140 402.3 310.6)" fill="url(#gMozz)" opacity=".97"/><ellipse cx="391.0" cy="303.0" rx="20.2" ry="7.6" transform="rotate(140 402.3 310.6)" fill="#fff" opacity=".35"/><ellipse cx="473.7" cy="439.5" rx="45.2" ry="30.8" transform="rotate(87 473.7 439.5)" fill="url(#gMozz)" opacity=".97"/><ellipse cx="462.4" cy="430.2" rx="20.3" ry="9.3" transform="rotate(87 473.7 439.5)" fill="#fff" opacity=".35"/><ellipse cx="332.0" cy="223.8" rx="27.5" ry="32.0" transform="rotate(56 332.0 223.8)" fill="url(#gMozz)" opacity=".97"/><ellipse cx="325.1" cy="214.2" rx="12.4" ry="9.6" transform="rotate(56 332.0 223.8)" fill="#fff" opacity=".35"/><ellipse cx="172.0" cy="327.5" rx="28.9" ry="34.1" transform="rotate(110 172.0 327.5)" fill="url(#gMozz)" opacity=".97"/><ellipse cx="164.8" cy="317.2" rx="13.0" ry="10.2" transform="rotate(110 172.0 327.5)" fill="#fff" opacity=".35"/><ellipse cx="550.8" cy="265.6" rx="40.2" ry="35.3" transform="rotate(47 550.8 265.6)" fill="url(#gMozz)" opacity=".97"/><ellipse cx="540.7" cy="255.0" rx="18.1" ry="10.6" transform="rotate(47 550.8 265.6)" fill="#fff" opacity=".35"/><ellipse cx="448.1" cy="195.9" rx="39.0" ry="37.1" transform="rotate(176 448.1 195.9)" fill="url(#gMozz)" opacity=".97"/><ellipse cx="438.4" cy="184.7" rx="17.6" ry="11.1" transform="rotate(176 448.1 195.9)" fill="#fff" opacity=".35"/><circle cx="434.8" cy="199.2" r="4.7" fill="#c98a3b" opacity=".55"/><ellipse cx="584.0" cy="364.5" rx="38.8" ry="36.3" transform="rotate(157 584.0 364.5)" fill="url(#gMozz)" opacity=".97"/><ellipse cx="574.3" cy="353.6" rx="17.5" ry="10.9" transform="rotate(157 584.0 364.5)" fill="#fff" opacity=".35"/><circle cx="582.5" cy="355.2" r="6.3" fill="#c98a3b" opacity=".55"/></g></g></svg>